<svg width="18" height="18" viewBox="0 0 18 18" fill="none" xmlns="http://www.w3.org/2000/svg">
<path d="M9.00002 17.3334C4.39752 17.3334 0.666687 13.6026 0.666687 9.00008C0.666687 4.39758 4.39752 0.666748 9.00002 0.666748C13.6025 0.666748 17.3334 4.39758 17.3334 9.00008C17.3334 13.6026 13.6025 17.3334 9.00002 17.3334ZM9.00002 15.6667C10.7681 15.6667 12.4638 14.9644 13.7141 13.7141C14.9643 12.4639 15.6667 10.7682 15.6667 9.00008C15.6667 7.23197 14.9643 5.53628 13.7141 4.28604C12.4638 3.03579 10.7681 2.33341 9.00002 2.33341C7.23191 2.33341 5.53622 3.03579 4.28598 4.28604C3.03573 5.53628 2.33335 7.23197 2.33335 9.00008C2.33335 10.7682 3.03573 12.4639 4.28598 13.7141C5.53622 14.9644 7.23191 15.6667 9.00002 15.6667V15.6667ZM4.83335 9.83342H6.50002C6.50002 10.4965 6.76341 11.1323 7.23225 11.6012C7.70109 12.07 8.33698 12.3334 9.00002 12.3334C9.66306 12.3334 10.2989 12.07 10.7678 11.6012C11.2366 11.1323 11.5 10.4965 11.5 9.83342H13.1667C13.1667 10.9385 12.7277 11.9983 11.9463 12.7797C11.1649 13.5611 10.1051 14.0001 9.00002 14.0001C7.89495 14.0001 6.83514 13.5611 6.05374 12.7797C5.27234 11.9983 4.83335 10.9385 4.83335 9.83342V9.83342ZM5.66669 8.16675C5.33517 8.16675 5.01722 8.03505 4.7828 7.80063C4.54838 7.56621 4.41669 7.24827 4.41669 6.91675C4.41669 6.58523 4.54838 6.26729 4.7828 6.03286C5.01722 5.79844 5.33517 5.66675 5.66669 5.66675C5.99821 5.66675 6.31615 5.79844 6.55057 6.03286C6.78499 6.26729 6.91669 6.58523 6.91669 6.91675C6.91669 7.24827 6.78499 7.56621 6.55057 7.80063C6.31615 8.03505 5.99821 8.16675 5.66669 8.16675ZM12.3334 8.16675C12.0018 8.16675 11.6839 8.03505 11.4495 7.80063C11.2151 7.56621 11.0834 7.24827 11.0834 6.91675C11.0834 6.58523 11.2151 6.26729 11.4495 6.03286C11.6839 5.79844 12.0018 5.66675 12.3334 5.66675C12.6649 5.66675 12.9828 5.79844 13.2172 6.03286C13.4517 6.26729 13.5834 6.58523 13.5834 6.91675C13.5834 7.24827 13.4517 7.56621 13.2172 7.80063C12.9828 8.03505 12.6649 8.16675 12.3334 8.16675Z" fill="#5243C2"/>
</svg>
